<svg width="119" height="26" viewBox="0 0 119 26" fill="none" xmlns="http://www.w3.org/2000/svg">
<path d="M59.437 10.254c0-1.833.906-2.908 2.338-2.908 1.41 0 2.252 1.033 2.252 2.866 0 1.833-.863 2.908-2.316 2.908-1.453 0-2.274-1.033-2.274-2.866zm5.972 0c0-2.844-1.518-4.317-3.634-4.317-2.116 0-3.655 1.473-3.655 4.317 0 2.844 1.539 4.296 3.655 4.296 2.116 0 3.634-1.452 3.634-4.296zm4.813 1.282c.194-.949.906-1.58 1.854-1.58.97 0 1.583.631 1.583 1.58h-3.437zm4.748-.716c0-1.941-1.151-3.255-2.894-3.255-1.722 0-2.958 1.377-2.958 3.339 0 1.983 1.257 3.318 3.023 3.318 1.108 0 2.058-.516 2.593-1.41l-.97-.558c-.387.558-.97.863-1.58.863-.97 0-1.66-.673-1.703-1.748h4.468c.021-.179.021-.37.021-.549zm4.49-3.128h-1.388v4.748c0 .822-.496 1.41-1.236 1.41-.652 0-.991-.295-.991-1.096V7.692h-1.388v5.351c0 1.302.673 2.123 1.854 2.123.801 0 1.453-.432 1.811-1.182v1.033h1.339V7.692h-.001zm6.781 2.428c.194-.949.906-1.58 1.854-1.58.97 0 1.583.631 1.583 1.58h-3.437zm4.748-.716c0-1.941-1.151-3.255-2.894-3.255-1.722 0-2.958 1.377-2.958 3.339 0 1.983 1.257 3.318 3.023 3.318 1.108 0 2.058-.516 2.593-1.41l-.97-.558c-.387.558-.97.863-1.58.863-.97 0-1.66-.673-1.703-1.748h4.468c.021-.179.021-.37.021-.549zm5.482-3.128l-1.647 5.544-1.647-5.544h-1.453l2.423 7.325h1.367l2.423-7.325h-1.466zm6.373 2.428c.194-.949.906-1.58 1.854-1.58.97 0 1.583.631 1.583 1.58h-3.437zm4.748-.716c0-1.941-1.151-3.255-2.894-3.255-1.722 0-2.958 1.377-2.958 3.339 0 1.983 1.257 3.318 3.023 3.318 1.108 0 2.058-.516 2.593-1.41l-.97-.558c-.387.558-.97.863-1.58.863-.97 0-1.66-.673-1.703-1.748h4.468c.021-.179.021-.37.021-.549zm5.006 3.402c-.798 0-1.388-.61-1.388-1.875 0-1.244.59-1.854 1.388-1.854s1.388.61 1.388 1.854c0 1.265-.59 1.875-1.388 1.875zm.022-5.054c-.67 0-1.215.411-1.475 1.054V5.794h-1.367v9.223h1.367v-3.072c.26.652.822 1.075 1.496 1.075 1.302 0 2.252-1.117 2.252-3.2-.001-2.083-.972-3.179-2.273-3.179z" fill="#6b7c93"/>
<path d="M21.638 9.815c0-.806-.659-1.022-1.947-1.289-1.255-.257-2.903-.598-2.903-2.462 0-1.446 1.287-2.568 3.291-2.568 1.412 0 2.645.591 3.384 1.636l-1.313.885c-.47-.694-1.194-1.105-2.071-1.105-1.024 0-1.661.468-1.661 1.073 0 .665.629.847 1.865 1.09 1.265.251 3.009.597 3.009 2.68 0 1.444-1.161 2.563-3.432 2.563-1.633 0-2.998-.681-3.705-1.865l1.298-.962c.541.921 1.423 1.406 2.407 1.406 1.192 0 1.778-.493 1.778-1.082zm5.087-3.881h-1.616v-1.5l-1.605.478v1.022h-1.228v1.358h1.228v3.382c0 1.403.599 2.018 2.108 2.018.404 0 .835-.073 1.113-.19v-1.326c-.22.082-.451.127-.674.127-.533 0-.726-.224-.726-.785V7.292h1.4V5.934zm6.072 0c-.394-.153-.826-.225-1.266-.225-.752 0-1.396.423-1.712 1.148V5.934h-1.572v6.263h1.605V8.783c0-.907.548-1.402 1.294-1.402.416 0 .798.113 1.093.316l.558-1.763zm2.534-3.321c-.573 0-1.038.468-1.038 1.047 0 .58.465 1.047 1.038 1.047.574 0 1.038-.468 1.038-1.047 0-.58-.464-1.047-1.038-1.047zm.802 3.321h-1.605v6.263h1.605V5.934zm6.866 3.142c0 1.928-1.314 3.236-3.044 3.236-.848 0-1.508-.345-1.888-.937v3.61h-1.605V5.934h1.572v.851c.389-.618 1.086-1.003 1.954-1.003 1.714 0 3.011 1.314 3.011 3.294zm-1.672.037c0-1.106-.629-1.852-1.561-1.852-.933 0-1.561.746-1.561 1.852s.629 1.851 1.561 1.851c.932 0 1.561-.745 1.561-1.851zm7.552 2.163c-.37.622-1.086 1.036-1.977 1.036-1.764 0-3.044-1.309-3.044-3.235 0-1.98 1.296-3.295 3.01-3.295.868 0 1.566.385 1.954 1.004V5.934h1.573v6.263h-1.516v-.921zm-3.349-2.199c0 1.106.629 1.851 1.562 1.851.932 0 1.562-.745 1.562-1.851 0-1.107-.629-1.852-1.562-1.852-.933 0-1.562.745-1.562 1.852z" fill="#32325d"/>
</svg>